<svg xmlns="http://www.w3.org/2000/svg" xmlns:xlink="http://www.w3.org/1999/xlink" version="1.1" id="Layer_1" x="0" y="0" viewBox="0 0 400 80" enable-background="new 0 0 400 80" xml:space="preserve">
  <path fill="#F37835" d="M93.7 10.4v29.8h17.1v11.3H80.1V10.4H93.7z"/>
  <path fill="#F37835" d="M133.4 40.9c3.3 0 5.9-2.6 5.9-6.7V10.4h13.6v23.7c0 10.9-7.7 18-19.6 18 -12 0-19.9-7.1-19.9-18V10.4H127v23.7C127 38.2 129.9 40.9 133.4 40.9z"/>
  <path fill="#F37835" d="M195.9 31c0 12.5-9 20.6-22.9 20.6h-17.9V10.4h18.4C187.1 10.4 195.9 18.5 195.9 31zM182 31.1c0-6.1-3.5-10.1-8.7-10.1h-4.5v20h5.1C178.8 41 182 37.2 182 31.1z"/>
  <path fill="#F37835" d="M211.6 10.4v41.2H198V10.4H211.6z"/>
  <path fill="#F37835" d="M236.2 21.4c-4.9 0-8.5 3.9-8.5 9.4 0 5.5 3.6 9.5 8.5 9.5 2.9 0 6.6-1.8 9.3-4.7l7.9 8.4c-4.6 5-11.6 8.2-17.9 8.2 -12.6 0-21.8-9-21.8-21.3 0-12.1 9.4-20.9 22.3-20.9 6.3 0 13.2 2.9 17.4 7.5l-7.9 9.3C243 23.5 239.3 21.4 236.2 21.4z"/>
  <path fill="#F37835" d="M278.1 51.6l-4.9-10.7H268v10.7h-13.6V10.4h19.9c11.2 0 17.6 5.3 17.6 14.7 0 6-2.3 10.5-6.5 13l8.1 13.4H278.1zM268 30.6h6.3c2.9 0 4.6-1.8 4.6-5 0-3.1-1.7-4.8-4.6-4.8H268V30.6z"/>
  <path fill="#F37835" d="M313.3 40.9c3.3 0 5.9-2.6 5.9-6.7V10.4h13.6v23.7c0 10.9-7.7 18-19.6 18 -12 0-19.9-7.1-19.9-18V10.4h13.6v23.7C306.9 38.2 309.9 40.9 313.3 40.9z"/>
  <path fill="#F37835" d="M349.5 10.4l9 21.5 9-21.5h14.4v41.2h-11.9V29.1l-7 18.6H354l-7-18.6v22.5h-11.9V10.4H349.5z"/>
  <path fill="#452D3B" d="M126.3 56.2l3.1 6.2 3.1-6.2h1.9v9.4h-1.5l0-7 -3 6h-1l-3-6v7h-1.5v-9.4H126.3z"/>
  <path fill="#452D3B" d="M142.9 63.5h-4.7l-0.9 2.1h-1.6l4.1-9.4h1.6l4.1 9.4h-1.7L142.9 63.5zM142.2 62.1l-1.8-4.2 -1.8 4.2H142.2z"/>
  <path fill="#452D3B" d="M152.9 65.6l-3.1-4.1 -1.6 1.8v2.4h-1.6v-9.4h1.6v4.9l4.5-4.9h1.9l-3.6 4 3.9 5.4H152.9z"/>
  <path fill="#452D3B" d="M157.9 56.2v9.4h-1.6v-9.4H157.9z"/>
  <path fill="#452D3B" d="M161.9 56.2l5 6.7v-6.7h1.6v9.4h-1.6l-5-6.7v6.7h-1.6v-9.4H161.9z"/>
  <path fill="#452D3B" d="M177.4 61h1.4v3.5c-1 0.7-2.4 1.2-3.6 1.2 -2.8 0-4.9-2.1-4.9-4.8s2.2-4.7 5-4.7c1.3 0 2.7 0.5 3.6 1.3l-0.9 1.2c-0.7-0.7-1.7-1.1-2.7-1.1 -1.9 0-3.4 1.5-3.4 3.3 0 1.9 1.5 3.3 3.4 3.3 0.7 0 1.5-0.2 2.2-0.6V61z"/>
  <path fill="#452D3B" d="M190.9 56.2v1.4h-3v8h-1.6v-8h-3v-1.4H190.9z"/>
  <path fill="#452D3B" d="M195.1 61V62h-3.3V61H195.1z"/>
  <path fill="#452D3B" d="M200.1 57.6c-0.9 0-1.5 0.3-1.5 1 0 2.1 5.1 1 5.1 4.3 0 1.7-1.5 2.7-3.5 2.7 -1.5 0-2.9-0.6-3.8-1.5l0.7-1.4c1 0.9 2.2 1.4 3.2 1.4 1.1 0 1.8-0.4 1.8-1.1 0-2.1-5.1-0.9-5.1-4.3 0-1.6 1.4-2.6 3.4-2.6 1.2 0 2.4 0.4 3.3 1l-0.7 1.4C201.9 57.9 200.8 57.6 200.1 57.6z"/>
  <path fill="#452D3B" d="M207.1 56.2v4.1h5v-4.1h1.6v9.4h-1.6v-3.9h-5v3.9h-1.6v-9.4H207.1z"/>
  <path fill="#452D3B" d="M217.7 56.2v9.4h-1.6v-9.4H217.7z"/>
  <path fill="#452D3B" d="M226.1 65.6l-1.7-2.8c-0.1 0-0.3 0-0.4 0h-2.2v2.8h-1.6v-9.4h3.8c2.4 0 3.8 1.2 3.8 3.2 0 1.5-0.7 2.6-1.9 3l2.1 3.1H226.1zM224 61.3c1.4 0 2.3-0.6 2.3-1.9 0-1.2-0.8-1.8-2.3-1.8h-2.2v3.7H224z"/>
  <path fill="#452D3B" d="M236.3 56.2v1.4h-3v8h-1.6v-8h-3v-1.4H236.3z"/>
  <path fill="#452D3B" d="M240.6 57.6c-0.9 0-1.5 0.3-1.5 1 0 2.1 5.1 1 5.1 4.3 0 1.7-1.5 2.7-3.5 2.7 -1.5 0-2.9-0.6-3.8-1.5l0.7-1.4c1 0.9 2.2 1.4 3.2 1.4 1.1 0 1.8-0.4 1.8-1.1 0-2.1-5.1-0.9-5.1-4.3 0-1.6 1.4-2.6 3.4-2.6 1.2 0 2.4 0.4 3.3 1l-0.7 1.4C242.3 57.9 241.3 57.6 240.6 57.6z"/>
  <path fill="#452D3B" d="M252.3 61V62H249V61H252.3z"/>
  <path fill="#452D3B" d="M265 58.6c0 1.1-0.6 1.9-1.6 2.1 1.3 0.2 2 1.1 2 2.4 0 1.6-1.3 2.6-3.4 2.6h-4.2v-9.4h4.1C263.8 56.2 265 57.1 265 58.6zM263.4 58.8c0-0.8-0.6-1.2-1.6-1.2h-2.4v2.5h2.4C262.8 60.1 263.4 59.6 263.4 58.8zM263.8 62.8c0-0.8-0.7-1.3-2-1.3h-2.4v2.7h2.4C263 64.2 263.8 63.7 263.8 62.8z"/>
  <path fill="#452D3B" d="M274 56.2v1.4h-5.1v2.5h4.6v1.4h-4.6v2.6h5.3v1.4h-6.9v-9.4H274z"/>
  <path fill="#452D3B" d="M280.2 57.6c-1.9 0-3.4 1.4-3.4 3.3 0 1.9 1.5 3.3 3.4 3.3 0.9 0 1.9-0.4 2.6-1.1l0.9 1c-1 0.9-2.3 1.5-3.6 1.5 -2.7 0-4.9-2.1-4.9-4.8 0-2.7 2.2-4.7 4.9-4.7 1.3 0 2.7 0.5 3.6 1.4l-0.9 1.2C282.2 58 281.2 57.6 280.2 57.6z"/>
  <path fill="#452D3B" d="M291.4 63.5h-4.7l-0.9 2.1h-1.6l4.1-9.4h1.6l4.1 9.4h-1.7L291.4 63.5zM290.8 62.1l-1.8-4.2 -1.8 4.2H290.8z"/>
  <path fill="#452D3B" d="M298.9 64.2c1.5 0 2.5-0.9 2.5-2.5v-5.5h1.6v5.5c0 2.5-1.5 4-4.1 4s-4.1-1.5-4.1-4v-5.5h1.6v5.5C296.4 63.3 297.3 64.2 298.9 64.2z"/>
  <path fill="#452D3B" d="M308.2 57.6c-0.9 0-1.5 0.3-1.5 1 0 2.1 5.1 1 5.1 4.3 0 1.7-1.5 2.7-3.5 2.7 -1.5 0-2.9-0.6-3.8-1.5l0.7-1.4c1 0.9 2.2 1.4 3.2 1.4 1.1 0 1.8-0.4 1.8-1.1 0-2.1-5.1-0.9-5.1-4.3 0-1.6 1.4-2.6 3.4-2.6 1.2 0 2.4 0.4 3.3 1l-0.7 1.4C309.9 57.9 308.9 57.6 308.2 57.6z"/>
  <path fill="#452D3B" d="M320.2 56.2v1.4h-5.1v2.5h4.6v1.4h-4.6v2.6h5.3v1.4h-6.9v-9.4H320.2z"/>
  <path fill="#452D3B" d="M327.4 56.2v9.4h-1.6v-9.4H327.4z"/>
  <path fill="#452D3B" d="M336.2 56.2v1.4h-3v8h-1.6v-8h-3v-1.4H336.2z"/>
  <path fill="#452D3B" d="M338.6 57.1c0 0.3-0.1 0.5-0.2 0.7l-0.8 1.2h-0.8l0.5-1.2c-0.2-0.2-0.4-0.4-0.4-0.7 0-0.5 0.3-0.9 0.8-0.9C338.3 56.2 338.6 56.5 338.6 57.1z"/>
  <path fill="#452D3B" d="M343.4 57.6c-0.9 0-1.5 0.3-1.5 1 0 2.1 5.1 1 5.1 4.3 0 1.7-1.5 2.7-3.5 2.7 -1.5 0-2.9-0.6-3.8-1.5l0.7-1.4c1 0.9 2.2 1.4 3.2 1.4 1.1 0 1.8-0.4 1.8-1.1 0-2.1-5.1-0.9-5.1-4.3 0-1.6 1.4-2.6 3.4-2.6 1.2 0 2.4 0.4 3.3 1l-0.7 1.4C345.2 57.9 344.1 57.6 343.4 57.6z"/>
  <path fill="#452D3B" d="M358.6 56.2l0 1.4h-4.7v2.7h4.3v1.4h-4.3v3.8h-1.6v-9.4H358.6z"/>
  <path fill="#452D3B" d="M363.9 64.2c1.5 0 2.5-0.9 2.5-2.5v-5.5h1.6v5.5c0 2.5-1.5 4-4.1 4s-4.1-1.5-4.1-4v-5.5h1.6v5.5C361.4 63.3 362.3 64.2 363.9 64.2z"/>
  <path fill="#452D3B" d="M371.8 56.2l5 6.7v-6.7h1.6v9.4h-1.6l-5-6.7v6.7h-1.6v-9.4H371.8z"/>
  <path fill="#452D3B" d="M382 64.8c0 0.5-0.4 0.9-0.8 0.9 -0.5 0-0.8-0.4-0.8-0.9 0-0.5 0.4-0.9 0.8-0.9C381.7 63.9 382 64.3 382 64.8zM381.9 56.3v2.3l-0.2 4h-1l-0.2-4v-2.3H381.9z"/>
  <g id="XMLID_177_">
    <g id="XMLID_188_">
      <g id="XMLID_190_">
        <g id="XMLID_237_">
          <path id="XMLID_240_" fill="#EFE3D2" d="M40.2 63.6c-1.7 1.7-3.7 2.3-5.6 2.4 2.3 1.8 5.5 2.5 6.1 2.3 0.6 0.2 3.7-0.5 6.1-2.3 -2.1 0-4.4-0.5-6.2-2.4H40.2z"/>
          <path id="XMLID_238_" fill="#EFE3D2" d="M72.4 51.6c-3.2 2.4-12.6 3.9-16.8 4.7 -3.1 0.6-6.1 1.7-9.1 2.8 -3.1 1.2-8.5 1.2-11.6 0 -3-1.2-6-2.2-9.1-2.8C21.6 55.5 12.2 54 9 51.6c-0.2 0-0.4 0-0.4 0 2.9 4.1 12.1 6.8 16.3 8.5 3.4 1.4 6.5 3.4 9.4 5.7 0.1 0.1 0.2 0.2 0.3 0.2 1.9-0.1 3.9-0.7 5.6-2.4h0.3c1.9 1.9 4.2 2.4 6.2 2.4 0.1-0.1 0.2-0.2 0.3-0.3 2.8-2.3 5.9-4.4 9.4-5.7 4.2-1.7 13.5-4.4 16.3-8.5C72.8 51.5 72.6 51.5 72.4 51.6z"/>
        </g>
        <path id="XMLID_235_" fill="#F37835" d="M17.1 40.4c0 0-0.5-0.3-1.3-0.9 0 0 5.3-0.2 3.6-8.7 -0.7-3.5-2-5.8-3.4-8 2.3-1.7 3.9-3.5 5-6l5.7 3.3h0c9.2-1.7 18.6-1.7 27.8 0h0l5.7-3.3c1.1 2.4 2.7 4.3 5 6 -1.4 2.2-2.7 4.5-3.4 8 -1.7 8.6 3.6 8.7 3.6 8.7 -0.8 0.6-1.3 0.9-1.3 0.9 0.2 7.3 7.2 11.2 8.1 11.2 -3.2 2.4-12.6 3.9-16.8 4.7 -3.1 0.6-6.1 1.6-9 2.8 -3.1 1.3-8.5 1.3-11.7 0 -2.9-1.2-5.9-2.2-9-2.8C21.6 55.5 12.2 54 9 51.6 10 51.6 16.9 47.7 17.1 40.4z"/>
        <path id="XMLID_233_" fill="#EFE3D2" d="M61.9 30.7c1.7-8.6 7.3-10.1 7.9-20.1 0 0 1.9 9.9 1.1 18.2 -0.6 5.8-3.6 9.2-5.4 10.6C65.5 39.5 60.2 39.3 61.9 30.7z"/>
        <path id="XMLID_231_" fill="#F37835" d="M60.3 16.8l9.5-6.2c-0.4 6-2.5 9-4.5 12.2C63 21.1 61.4 19.2 60.3 16.8z"/>
        <path id="XMLID_229_" fill="#EFE3D2" d="M19.5 30.7c-1.7-8.6-7.3-10.1-7.9-20.1 0 0-1.9 9.9-1.1 18.2 0.6 5.8 3.6 9.2 5.4 10.6C15.9 39.5 21.2 39.3 19.5 30.7z"/>
        <path id="XMLID_227_" fill="#F37835" d="M21.1 16.8l-9.5-6.2c0.4 6 2.5 9 4.5 12.2C18.4 21.1 20 19.2 21.1 16.8z"/>
        <path id="XMLID_225_" fill="#452D3B" d="M41.2 63.2l3.1-3.4c0.7-0.7-8.5-0.7-7.8 0l3.1 3.4C40 63.7 40.8 63.7 41.2 63.2z"/>
        <g id="XMLID_197_">
          <path id="XMLID_223_" fill="#EFE3D2" d="M35.8 40c1.3 3.3 0.4 8-3.7 9.6s-10-3.5-11.3-6.7c-1.3-3.3 1.1-5.7 5.2-7.4C30.1 33.9 34.5 36.7 35.8 40z"/>
          <path id="XMLID_221_" fill="#EFE3D2" d="M45.6 40c-1.3 3.3-0.4 8 3.7 9.6 4.1 1.6 10-3.5 11.3-6.7 1.3-3.3-1.1-5.7-5.2-7.4C51.2 33.9 46.8 36.7 45.6 40z"/>
          <g id="XMLID_218_">
            <circle id="XMLID_219_" fill="#452D3B" cx="30.3" cy="44.6" r="3.1"/>
          </g>
          <g id="XMLID_207_">
            <circle id="XMLID_216_" fill="#452D3B" cx="51.1" cy="44.6" r="3.1"/>
          </g>
        </g>
      </g>
    </g>
    <g id="XMLID_179_"/>
  </g>
</svg>
